<?xml version="1.0" encoding="utf-8"?>
<!-- Generator: Adobe Illustrator 23.0.2, SVG Export Plug-In . SVG Version: 6.00 Build 0)  -->
<svg version="1.1" id="Layer_1" xmlns="http://www.w3.org/2000/svg" xmlns:xlink="http://www.w3.org/1999/xlink" x="0px" y="0px"
	 viewBox="0 0 100 200" style="enable-background:new 0 0 100 200;" xml:space="preserve">
<style type="text/css">
	.st0{clip-path:url(#SVGID_2_);fill:#57B4AD;}
	.st1{fill:#28ABA2;}
	.st2{fill:#FFFFFF;}
	.st3{fill:#CCE3E0;}
	.st4{fill:#C3DFDC;}
	.st5{fill:#9ECECA;}
	.st6{fill:#8FC7C2;}
	.st7{fill:#E8BBA1;}
	.st8{fill:#F4C8AA;}
	.st9{fill:#F4E1D4;}
	.st10{fill:#FDD0AE;}
	.st11{fill:#414042;}
	.st12{fill:#515254;}
	.st13{fill:#EAC1A2;}
	.st14{fill:#E3E4E5;}
	.st15{fill:#4E4F51;}
</style>
<g id="Touch_icon_concept._Finger_presses_1_">
	<g>
		<defs>
			<rect id="SVGID_1_" x="-44" y="-17" width="179" height="238.1"/>
		</defs>
		<clipPath id="SVGID_2_">
			<use xlink:href="#SVGID_1_"  style="overflow:visible;"/>
		</clipPath>
		<polyline class="st0" points="135,-17 -44,-17 -44,221.1 135,221.1 135,-17 		"/>
	</g>
	<path class="st1" d="M82.3,195.4H42.5H25.9v-1.8h15h39.8v-43.2h1.6V195.4 M78.7,148.6h-1.6v-2.4v-6.8h-0.7v-4v-9.9H42.1
		c-4.1-6.5-10.6-14-10.6-14l-0.8-0.2l-0.9-4.2l-5-24.3c-0.2-0.9-0.5-1.7-1-2.5c0.8,0.6,1.5,1.4,2,2.4V53.1c-3.5-1.3-6.5-3.5-8.8-6.2
		c3.8,3.6,8.9,5.8,14.5,5.8c3.2,0,6.3-0.7,9-2v0.1c4.8-2,8.5-5.9,10.3-10.8c1.1-2.6,1.7-5.4,1.7-8.3c0-5.1-1.8-9.8-4.9-13.5
		c4,3.8,6.5,9.2,6.5,15.2c0,9-5.7,16.8-13.7,19.7V75c0-3.9,3.1-7,7-7h0.1c3.9,0,7,3.1,7,7v5.1c0-3.5,3-6.3,6.8-6.3h0.1
		c3.7,0,6.8,2.8,6.8,6.3V85c0-3.2,3-5.7,6.7-5.7h0.3c3.7,0,6.7,2.6,6.7,5.7v1.3c1.3,27.1-1.2,39.5-4,45.1v6v4h0.7v6.8V148.6
		 M29.9,128.7c-0.8-0.7-1.5-1.5-2.2-2.3c0.7,0.7,1.4,1.4,2.2,2.1V128.7 M31.6,50.5c-2,0-3.9-0.3-5.7-0.9v-0.7
		c-2.3-1.1-4.3-2.7-6-4.7c3.1,2.8,7.2,4.6,11.7,4.6c9.5,0,17.2-7.7,17.2-17.2c0-4.1-1.4-7.9-3.8-10.8c3.4,3.1,5.5,7.6,5.5,12.5
		C49.5,43,41.4,50.5,31.6,50.5 M31.6,46.3c-2,0-4-0.4-5.7-1.2V44c-3.4-2.3-5.6-6.2-5.6-10.7c0-7.2,5.8-13,13-13
		c7.1,0,12.9,5.8,13,12.9C45.4,40.6,39.1,46.3,31.6,46.3 M33.2,25.7h0.1c4,0,7.3,3.3,7.3,7.3v7.4c1.8-1.8,2.9-4.3,2.9-7.1
		c0-5.6-4.6-10.2-10.2-10.2c-5.6,0-10.2,4.6-10.2,10.2c0,2.7,1.1,5.2,2.8,7.1V33C25.9,29,29.1,25.7,33.2,25.7 M18.6,45.4
		c-3.7-3.4-5.9-8.3-5.9-13.8c0-2.3,0.4-4.5,1.2-6.6c2.3-5.4,6.8-9.6,12.3-11.5c1.7-0.5,3.5-0.8,5.4-0.8c5.9,0,11.1,2.7,14.6,6.9
		c-3.4-3.2-7.9-5.1-13-5.1c-0.1,0-0.3,0-0.4,0c-0.4,0-0.8,0-1.2,0c-9.5,0-17.2,7.7-17.2,17.2c0,0,0,0,0,0c-0.1,0.6-0.1,1.1-0.1,1.7
		C14.3,37.9,16,42.1,18.6,45.4 M21.7,42.5c-3-2.7-4.8-6.6-4.8-10.9c0-8.1,6.6-14.7,14.7-14.7c4.7,0,8.8,2.2,11.5,5.6
		c-2.6-2.4-6.1-3.8-9.9-3.8c-8.1,0-14.7,6.6-14.7,14.7C18.5,36.8,19.7,40,21.7,42.5"/>
	<path class="st2" d="M31.6,41.8c-5.6,0-10.2-4.6-10.2-10.2c0-5.6,4.6-10.2,10.2-10.2c5.6,0,10.2,4.6,10.2,10.2
		C41.8,37.3,37.2,41.8,31.6,41.8L31.6,41.8z M31.6,18.6c-7.2,0-13,5.8-13,13c0,7.2,5.8,13,13,13c7.2,0,13-5.8,13-13
		C44.6,24.4,38.8,18.6,31.6,18.6L31.6,18.6z"/>
	<path class="st3" d="M40.6,46.1V44c3.4-2.3,5.6-6.2,5.6-10.7c0,0,0-0.1,0-0.1c0.1-0.6,0.1-1.1,0.1-1.7c0-3.4-1.2-6.6-3.2-9.1
		c3,2.7,4.8,6.6,4.8,10.9C47.9,38.8,45,43.5,40.6,46.1 M25.9,46.1c-1.6-0.9-3-2.1-4.1-3.6c1.2,1.1,2.6,2,4.1,2.6V46.1 M19.9,44.2
		c-3.4-3.1-5.5-7.6-5.5-12.5c0.9-9.5,8.7-16.9,18.4-17.2c4.9,0.3,9.2,2.7,12.1,6.3c-3.1-2.9-7.2-4.6-11.7-4.6
		c-9.5,0-17.2,7.7-17.2,17.2C16.1,37.5,17.5,41.2,19.9,44.2"/>
	<path class="st4" d="M31.6,48.8c-4.5,0-8.6-1.7-11.7-4.6c-2.4-3-3.8-6.7-3.8-10.8c0-9.5,7.7-17.2,17.2-17.2c4.5,0,8.6,1.7,11.7,4.6
		c2.4,3,3.8,6.7,3.8,10.8C48.8,41.1,41.1,48.8,31.6,48.8 M25.9,45.1c1.8,0.7,3.7,1.2,5.7,1.2c7.6,0,13.8-5.7,14.6-13
		c0,0,0,0.1,0,0.1c0,4.4-2.2,8.3-5.6,10.7v2.1c4.4-2.5,7.3-7.3,7.3-12.7c0-4.3-1.9-8.2-4.8-10.9c-2.7-3.4-6.9-5.6-11.5-5.6
		c-8.1,0-14.7,6.6-14.7,14.7c0,4.3,1.9,8.2,4.8,10.9c1.1,1.4,2.5,2.6,4.1,3.6V45.1 M14.4,31.6C14.4,31.6,14.4,31.6,14.4,31.6
		c0-9.5,7.7-17.2,17.2-17.2c0.4,0,0.8,0,1.2,0C23.1,14.7,15.3,22.2,14.4,31.6"/>
	<path class="st5" d="M25.9,50.8c-2.8-1.2-5.3-3.1-7.2-5.4c2,1.9,4.5,3.4,7.2,4.3V50.8 M40.6,50.7v-1.8c5.8-2.8,9.8-8.7,9.8-15.5
		c0,0,0,0,0,0c0.1-0.6,0.1-1.1,0.1-1.7c0-4.6-1.6-8.7-4.3-12c3.7,3.4,5.9,8.3,5.9,13.8c0,2.3-0.4,4.5-1.2,6.6
		C48.9,44.7,45.2,48.5,40.6,50.7 M17.1,46.9c-4-3.8-6.5-9.2-6.5-15.2c0-11.6,9.4-21.1,21.1-21.1c6.5,0,12.3,2.9,16.2,7.6
		c-3.8-3.6-8.9-5.8-14.5-5.8c-2.5,0-4.8,0.4-7,1.2c-5.7,1.7-10.3,6-12.3,11.5c-1.1,2.6-1.7,5.4-1.7,8.3C12.2,38.5,14,43.2,17.1,46.9
		"/>
	<path class="st6" d="M31.6,52.7c-5.6,0-10.8-2.2-14.5-5.8c-3-3.7-4.9-8.4-4.9-13.5c0-3,0.6-5.8,1.7-8.3c-0.8,2.1-1.2,4.3-1.2,6.6
		c0,5.4,2.3,10.3,5.9,13.8c1.9,2.3,4.4,4.2,7.2,5.4v-1.1c1.8,0.6,3.7,0.9,5.7,0.9c9.9,0,17.9-7.5,18.8-17.2c0,0,0,0,0,0
		c0,6.8-4,12.8-9.8,15.5v1.8C37.9,51.9,34.8,52.7,31.6,52.7 M50.9,40c0.8-2.1,1.2-4.3,1.2-6.6c0-5.4-2.3-10.3-5.9-13.8
		c-3.5-4.2-8.7-6.9-14.6-6.9c-1.9,0-3.7,0.3-5.4,0.8c2.2-0.8,4.6-1.2,7-1.2c5.6,0,10.8,2.2,14.5,5.8c3,3.7,4.9,8.4,4.9,13.5
		C52.7,34.6,52.1,37.4,50.9,40"/>
	<path class="st7" d="M31.6,111.6l-0.8-0.2l-0.9-4.2l-5-24.3c-0.8-3.8-4.5-6.3-8.4-5.5l-0.1,0c-4,0.8-6.4,4.8-5.4,8.7l0.6,1.5
		c3,7,4.8,14.5,5.7,22c0.2,1.6,0.5,3,1.1,4c3.9,6.8,11.4,17.5,21.8,20.8C55.8,139.5,31.6,111.6,31.6,111.6"/>
	<path class="st8" d="M29.9,128.4c-5.2-4.6-9.1-10.5-11.6-14.8c-0.6-1-0.9-2.4-1.1-4c-0.9-7.6-2.7-15-5.7-22l-0.6-1.5
		c-0.1-0.6-0.2-1.2-0.2-1.7c0-3.3,2.3-6.2,5.7-6.9l0.1,0c0.5-0.1,1-0.1,1.4-0.1c3.3,0,6.2,2.3,6.9,5.7l5,24.3l0.9,4.2l0.8,0.2
		c0,0,6.5,7.5,10.6,14H29.9V128.4"/>
	<path class="st9" d="M18.9,88.6l-6.2,1.9l-2.2-5c-0.7-2.3,0.2-4.6,2-5.1l0.1,0c1.8-0.6,3.9,0.8,4.6,3.1L18.9,88.6L18.9,88.6z"/>
	<path class="st10" d="M39,112.5H24.2V31.3c0-4,3.3-7.3,7.3-7.3h0.1c4,0,7.3,3.3,7.3,7.3V112.5L39,112.5z"/>
	<path class="st10" d="M79,116H66.8V83.2c0-3.2,3-5.7,6.7-5.7h0.3c3.7,0,6.7,2.6,6.7,5.7L79,116L79,116z"/>
	<path class="st10" d="M66.8,113.7H53.1V78.4c0-3.5,3-6.3,6.8-6.3H60c3.7,0,6.8,2.8,6.8,6.3V113.7L66.8,113.7z"/>
	<path class="st10" d="M53.1,111.1H39V73.3c0-3.9,3.1-7,7-7h0.1c3.9,0,7,3.1,7,7V111.1L53.1,111.1z"/>
	<path class="st9" d="M36.2,36.2l-9.1,0l0-5.1c0-2.2,2-4,4.5-4h0.1c2.5,0,4.5,1.8,4.5,4L36.2,36.2L36.2,36.2z"/>
	<path class="st10" d="M80.4,84.5v-1.3l-10.4,4.6L39,74l-14.8-1.9v38c0,5,1.1,10,3.2,14.5c0,0,5,8.6,5,8.7c2.4,5.1,0,0,2.7,0.3
		l34.9,0.2C70,133.7,83.1,140,80.4,84.5L80.4,84.5z"/>
	<path class="st10" d="M31.6,131.4c0,0,2.6,7.6,0,11.4H74c0,0-0.5-4.5,0-11.6C74.5,124.1,31.6,131.4,31.6,131.4"/>
	<polyline class="st10" points="76.4,146.9 29.9,146.9 29.9,125.6 76.4,125.6 76.4,146.9 	"/>
	<polyline class="st2" points="77.1,152.2 27.8,152.2 27.8,139.5 77.1,139.5 77.1,152.2 	"/>
	<polyline class="st11" points="80.7,193.6 24.2,193.6 24.2,148.6 80.7,148.6 80.7,193.6 	"/>
	<polyline class="st12" points="40.9,193.6 24.2,193.6 24.2,148.6 27.8,148.6 40.9,148.6 40.9,193.6 	"/>
	<path class="st2" d="M38.4,159.9c0-2.3-1.9-4.2-4.2-4.2c-2.3,0-4.2,1.9-4.2,4.2c0,2.3,1.9,4.2,4.2,4.2
		C36.5,164.1,38.4,162.2,38.4,159.9L38.4,159.9z"/>
	<path class="st2" d="M38.4,171.6c0-2.3-1.9-4.2-4.2-4.2c-2.3,0-4.2,1.9-4.2,4.2c0,2.3,1.9,4.2,4.2,4.2
		C36.5,175.8,38.4,173.9,38.4,171.6L38.4,171.6z"/>
	<polyline class="st13" points="76.4,139.5 29.9,139.5 76.4,135.6 76.4,139.5 	"/>
	<polyline class="st14" points="77.1,148.6 27.8,148.6 77.1,146.3 77.1,148.6 	"/>
	<polyline class="st15" points="77.1,148.6 40.9,148.6 27.8,148.6 77.1,148.6 	"/>
</g>
</svg>
