<!--Scalable Vector Graphic-->
<svg xmlns="http://www.w3.org/2000/svg" 
     xmlns:xlink="http://www.w3.org/1999/xlink"  
     width="960px" 
     height="560px" 
     viewBox="0 0 960px 560px"
		 style="display: none;">
	
		 <symbol id="search" viewbox="0 0 100 100">
			<path class="icon-path" d="M100,92.7c0-1.9-0.7-3.8-2.1-5.2L79.7,69.3c5.4-7.4,8.3-16.3,8.1-25.4C88,32.2,83.3,21,74.9,12.8
				c-8.1-8.4-19.4-13-31-12.8C32.2-0.2,21,4.5,12.8,12.8l0,0C4.5,21-0.2,32.2,0,43.9c-0.2,11.7,4.4,22.9,12.8,31
				C21,83.3,32.2,88,43.9,87.8c9.1,0.2,18.1-2.7,25.4-8.1l18.2,18.2c2.9,2.9,7.5,2.9,10.3,0C99.2,96.5,100,94.6,100,92.7 M64.6,23.2
				c5.6,5.4,8.7,12.9,8.5,20.7c0.1,7.6-2.8,14.9-8.2,20.3l-0.3,0.4L64.3,65c-5.4,5.4-12.7,8.3-20.4,8.2c-7.8,0.1-15.3-2.9-20.7-8.5
				c-5.6-5.4-8.7-12.9-8.5-20.7c-0.1-7.8,3-15.3,8.5-20.7l0,0c5.4-5.6,12.9-8.7,20.7-8.5C51.7,14.5,59.2,17.6,64.6,23.2z"/>
		 </symbol>
	
		 <symbol id="arrow" viewbox="0 0 100 100">
				<g id="Layer_1">
					<path class="st0" d="M31.3,97.5c-2.6,0-5.1-1-7.1-2.9c-3.9-3.9-3.9-10.3,0-14.2L54.5,50L24.2,19.6c-3.9-3.9-3.9-10.3,0-14.2
						s10.3-3.9,14.2,0l37.5,37.5c1.9,1.9,2.9,4.4,2.9,7.1s-1.1,5.2-2.9,7.1L38.4,94.6C36.4,96.5,33.8,97.5,31.3,97.5z"/>
				</g>
		 </symbol>
			
</svg>
